{
.appVersion = "3087";
.formatVersion = 3;
DisplayStrings = (
fragitjle,
M,
"?",
g,
r
);
date = "2022-02-20 13:28:03 +0000";
familyName = "Optica Mono";
featurePrefixes = (
{
automatic = 1;
code = "languagesystem DFLT dflt;

languagesystem latn dflt;
languagesystem latn AZE;
languagesystem latn CRT;
languagesystem latn KAZ;
languagesystem latn TAT;
languagesystem latn TRK;
";
name = Languagesystems;
}
);
features = (
{
automatic = 1;
code = "feature locl;
feature calt;
";
tag = aalt;
},
{
automatic = 1;
code = "lookup locl_latn_0 {
	script latn;
	language AZE;
	sub i by i;
	language CRT;
	sub i by i;
	language KAZ;
	sub i by i;
	language TAT;
	sub i by i;
	language TRK;
	sub i by i;
} locl_latn_0;
";
tag = locl;
},
{
automatic = 1;
code = "lookupflag IgnoreMarks;
sub bracketright hyphen greater by bracketright_hyphen_greater.liga;
sub hyphen bracketleft colon by hyphen_bracketleft_colon.liga;
sub bracketleft colon by bracketleft_colon.liga;
sub hyphen greater by hyphen_greater.liga;
";
disabled = 1;
tag = liga;
},
{
code = "lookup table1 {
sub equal' equal by equal.alt1;
sub equal.alt1 equal' by equal.alt2;

sub exclam' equal by exclam.alt.not_equal;
sub exclam.alt.not_equal equal' by equal.alt.not_equal;

sub equal' greater by equal.alt1;
sub equal.alt1 greater' by greater.alt1;

sub hyphen' greater by hyphen.alt1;
sub hyphen.alt1 greater' by greater.alt2;
} table1;
";
tag = calt;
}
);
fontMaster = (
{
customParameters = (
{
name = "Default Layer Width";
value = "1266";
}
);
id = m01;
metricValues = (
{
pos = 1920;
},
{
over = 32;
pos = 1440;
},
{
over = 20;
pos = 1080;
},
{
over = -20;
},
{
pos = -480;
}
);
name = Regular;
stemValues = (
170
);
}
);
glyphs = (
{
glyphname = A;
lastChange = "2022-12-09 16:32:53 +0000";
layers = (
{
layerId = m01;
shapes = (
{
closed = 1;
nodes = (
(306,0,l),
(627,1243,l),
(654,1243,l),
(654,1440,l),
(544,1440,l),
(124,0,l)
);
},
{
closed = 1;
nodes = (
(1142,0,l),
(722,1440,l),
(583,1440,l),
(960,0,l)
);
},
{
closed = 1;
nodes = (
(399,360,l),
(867,360,l),
(867,498,l),
(399,498,l)
);
}
);
width = 1266;
}
);
unicode = 65;
},
{
glyphname = B;
lastChange = "2022-12-09 15:28:42 +0000";
layers = (
{
layerId = m01;
shapes = (
{
closed = 1;
nodes = (
(684,725,ls),
(877,725,o),
(1080,822,o),
(1080,1064,cs),
(1080,1322,o),
(942,1440,o),
(684,1440,cs),
(265,1440,l),
(277,1298,l),
(647,1298,ls),
(803,1298,o),
(902,1213,o),
(902,1043,cs),
(902,864,o),
(803,797,o),
(647,797,cs),
(297,797,l),
(287,725,l)
);
},
{
closed = 1;
nodes = (
(371,0,l),
(371,1440,l),
(203,1440,l),
(203,0,l)
);
},
{
closed = 1;
nodes = (
(713,1,ls),
(976,1,o),
(1116,132,o),
(1116,394,cs),
(1116,646,o),
(907,743,o),
(713,743,cs),
(285,743,l),
(297,656,l),
(675,656,ls),
(834,656,o),
(935,568,o),
(935,395,cs),
(935,212,o),
(834,146,o),
(675,146,cs),
(318,146,l),
(308,1,l)
);
},
{
closed = 1;
nodes = (
(767,699,l),
(830,699,l),
(830,770,l),
(767,770,l)
);
}
);
width = 1266;
}
);
unicode = 66;
},
{
glyphname = C;
lastChange = "2022-12-09 14:45:24 +0000";
layers = (
{
layerId = m01;
shapes = (
{
closed = 1;
nodes = (
(910,-20,o),
(1090,134,o),
(1109,400,c),
(936,400,l),
(915,224,o),
(803,128,o),
(633,128,cs),
(443,128,o),
(326,248,o),
(326,464,cs),
(326,990,ls),
(326,1205,o),
(443,1324,o),
(633,1324,cs),
(808,1324,o),
(921,1223,o),
(938,1041,c),
(1110,1041,l),
(1096,1314,o),
(914,1472,o),
(633,1472,cs),
(340,1472,o),
(155,1300,o),
(155,1005,cs),
(155,448,ls),
(155,153,o),
(340,-20,o),
(633,-20,cs)
);
}
);
width = 1266;
}
);
unicode = 67;
},
{
glyphname = D;
lastChange = "2022-12-09 14:53:15 +0000";
layers = (
{
layerId = m01;
shapes = (
{
closed = 1;
nodes = (
(378,0,l),
(378,1440,l),
(208,1440,l),
(208,0,l)
);
},
{
closed = 1;
nodes = (
(905,0,o),
(1110,157,o),
(1110,452,cs),
(1110,973,ls),
(1110,1265,o),
(905,1440,o),
(612,1440,cs),
(331,1440,o),
(329,1440,o),
(265,1440,c),
(265,1293,l),
(329,1293,o),
(437,1293,o),
(612,1293,cs),
(802,1293,o),
(939,1171,o),
(939,958,cs),
(939,468,ls),
(939,252,o),
(802,148,o),
(612,148,cs),
(442,148,o),
(407,148,o),
(329,148,c),
(329,0,l),
(455,0,o),
(335,0,o),
(612,0,cs)
);
}
);
width = 1266;
}
);
unicode = 68;
},
{
glyphname = E;
lastChange = "2022-12-09 13:55:11 +0000";
layers = (
{
layerId = m01;
shapes = (
{
closed = 1;
nodes = (
(217,1298,l),
(1080,1298,l),
(1080,1440,l),
(217,1440,l)
);
},
{
closed = 1;
nodes = (
(378,0,l),
(378,1440,l),
(208,1440,l),
(208,0,l)
);
},
{
closed = 1;
nodes = (
(217,657,l),
(1024,657,l),
(1024,799,l),
(217,799,l)
);
},
{
closed = 1;
nodes = (
(244,0,l),
(1080,0,l),
(1080,148,l),
(244,148,l)
);
}
);
width = 1266;
}
);
unicode = 69;
},
{
glyphname = F;
lastChange = "2022-12-09 16:27:07 +0000";
layers = (
{
layerId = m01;
shapes = (
{
closed = 1;
nodes = (
(217,1298,l),
(1080,1298,l),
(1080,1440,l),
(217,1440,l)
);
},
{
closed = 1;
nodes = (
(381,0,l),
(381,1440,l),
(211,1440,l),
(211,0,l)
);
},
{
closed = 1;
nodes = (
(217,657,l),
(1032,657,l),
(1032,799,l),
(217,799,l)
);
}
);
width = 1266;
}
);
unicode = 70;
},
{
glyphname = G;
lastChange = "2022-12-09 14:50:30 +0000";
layers = (
{
layerId = m01;
shapes = (
{
closed = 1;
nodes = (
(926,-20,o),
(1111,153,o),
(1111,448,cs),
(1111,767,l),
(940,767,l),
(940,464,ls),
(940,248,o),
(823,128,o),
(633,128,cs),
(443,128,o),
(326,248,o),
(326,464,cs),
(326,990,ls),
(326,1205,o),
(443,1324,o),
(633,1324,cs),
(808,1324,o),
(921,1223,o),
(938,1039,c),
(1110,1039,l),
(1096,1313,o),
(914,1472,o),
(633,1472,cs),
(340,1472,o),
(155,1300,o),
(155,1005,cs),
(155,448,ls),
(155,153,o),
(340,-20,o),
(633,-20,cs)
);
},
{
closed = 1;
nodes = (
(1111,625,l),
(1111,767,l),
(567,767,l),
(567,625,l)
);
}
);
width = 1266;
}
);
unicode = 71;
},
{
glyphname = H;
lastChange = "2022-12-09 13:36:06 +0000";
layers = (
{
layerId = m01;
shapes = (
{
closed = 1;
nodes = (
(181,657,l),
(1085,657,l),
(1085,799,l),
(181,799,l)
);
},
{
closed = 1;
nodes = (
(330,0,l),
(330,1440,l),
(160,1440,l),
(160,0,l)
);
},
{
closed = 1;
nodes = (
(1106,0,l),
(1106,1440,l),
(936,1440,l),
(936,0,l)
);
}
);
width = 1266;
}
);
unicode = 72;
},
{
glyphname = I;
lastChange = "2022-12-09 13:39:49 +0000";
layers = (
{
layerId = m01;
shapes = (
{
closed = 1;
nodes = (
(213,1298,l),
(1053,1298,l),
(1053,1440,l),
(213,1440,l)
);
},
{
closed = 1;
nodes = (
(548,68,l),
(718,68,l),
(718,1359,l),
(548,1359,l)
);
},
{
closed = 1;
nodes = (
(221,0,l),
(1061,0,l),
(1061,148,l),
(221,148,l)
);
}
);
width = 1266;
}
);
unicode = 73;
},
{
glyphname = J;
lastChange = "2022-12-09 17:05:46 +0000";
layers = (
{
layerId = m01;
shapes = (
{
closed = 1;
nodes = (
(894,1440,l),
(894,427,ls),
(894,226,o),
(799,138,o),
(624,138,cs),
(467,138,o),
(369,220,o),
(344,368,c),
(175,368,l),
(204,122,o),
(368,-20,o),
(624,-20,cs),
(894,-20,o),
(1065,138,o),
(1065,412,cs),
(1065,1440,l)
);
},
{
closed = 1;
nodes = (
(468,1298,l),
(1065,1298,l),
(1065,1440,l),
(468,1440,l)
);
}
);
width = 1266;
}
);
unicode = 74;
},
{
glyphname = K;
lastChange = "2022-12-09 17:08:44 +0000";
layers = (
{
layerId = m01;
shapes = (
{
closed = 1;
nodes = (
(506,725,l),
(528,725,l),
(1114,1440,l),
(904,1440,l),
(320,684,l),
(280,684,l),
(290,468,l)
);
},
{
closed = 1;
nodes = (
(371,0,l),
(371,1440,l),
(201,1440,l),
(201,0,l)
);
},
{
closed = 1;
nodes = (
(1145,0,l),
(553,847,l),
(444,751,l),
(934,0,l)
);
}
);
width = 1266;
}
);
unicode = 75;
},
{
glyphname = L;
lastChange = "2022-12-09 13:33:00 +0000";
layers = (
{
layerId = m01;
shapes = (
{
closed = 1;
nodes = (
(1108,0,l),
(1108,148,l),
(374,148,l),
(374,1440,l),
(204,1440,l),
(204,0,l)
);
}
);
width = 1266;
}
);
unicode = 76;
},
{
glyphname = M;
lastChange = "2022-12-10 07:06:37 +0000";
layers = (
{
layerId = m01;
shapes = (
{
closed = 1;
nodes = (
(300,0,l),
(300,1440,l),
(148,1440,l),
(148,0,l)
);
},
{
closed = 1;
nodes = (
(1118,0,l),
(1118,1440,l),
(966,1440,l),
(966,0,l)
);
},
{
closed = 1;
nodes = (
(562,357,l),
(660,357,l),
(660,591,l),
(627,591,l),
(320,1440,l),
(202,1440,l)
);
},
{
closed = 1;
nodes = (
(946,1440,l),
(562,357,l),
(704,357,l),
(1064,1440,l)
);
},
{
closed = 1;
nodes = (
(294,1064,l),
(358,1064,l),
(358,1193,l),
(294,1193,l)
);
},
{
closed = 1;
nodes = (
(908,1193,l),
(908,1064,l),
(972,1064,l),
(972,1193,l)
);
}
);
width = 1266;
}
);
unicode = 77;
},
{
glyphname = N;
lastChange = "2022-12-09 14:07:49 +0000";
layers = (
{
layerId = m01;
shapes = (
{
closed = 1;
nodes = (
(320,0,l),
(320,1440,l),
(160,1440,l),
(160,0,l)
);
},
{
closed = 1;
nodes = (
(1106,0,l),
(1106,1440,l),
(946,1440,l),
(946,0,l)
);
},
{
closed = 1;
nodes = (
(232,1152,l),
(336,1152,l),
(930,0,l),
(987,0,l),
(987,296,l),
(930,296,l),
(336,1440,l),
(232,1440,l)
);
}
);
width = 1266;
}
);
unicode = 78;
},
{
glyphname = O;
lastChange = "2022-12-09 14:41:51 +0000";
layers = (
{
layerId = m01;
shapes = (
{
closed = 1;
nodes = (
(926,-20,o),
(1111,153,o),
(1111,448,cs),
(1111,1005,ls),
(1111,1300,o),
(926,1472,o),
(633,1472,cs),
(340,1472,o),
(155,1300,o),
(155,1005,cs),
(155,448,ls),
(155,153,o),
(340,-20,o),
(633,-20,cs)
);
},
{
closed = 1;
nodes = (
(443,128,o),
(326,248,o),
(326,464,cs),
(326,990,ls),
(326,1205,o),
(443,1324,o),
(633,1324,cs),
(823,1324,o),
(940,1205,o),
(940,990,cs),
(940,464,ls),
(940,248,o),
(823,128,o),
(633,128,cs)
);
}
);
width = 1266;
}
);
unicode = 79;
},
{
glyphname = P;
lastChange = "2022-12-09 16:59:20 +0000";
layers = (
{
layerId = m01;
shapes = (
{
closed = 1;
nodes = (
(700,625,ls),
(968,625,o),
(1117,766,o),
(1117,1026,cs),
(1117,1286,o),
(964,1440,o),
(698,1440,cs),
(264,1440,l),
(264,1300,l),
(667,1300,ls),
(833,1300,o),
(939,1209,o),
(939,1027,cs),
(939,841,o),
(833,766,o),
(667,766,cs),
(286,766,l),
(286,625,l)
);
},
{
closed = 1;
nodes = (
(356,0,l),
(356,1440,l),
(188,1440,l),
(188,0,l)
);
}
);
width = 1266;
}
);
unicode = 80;
},
{
glyphname = Q;
lastChange = "2022-12-10 03:00:25 +0000";
layers = (
{
layerId = m01;
shapes = (
{
closed = 1;
nodes = (
(926,-20,o),
(1111,153,o),
(1111,448,cs),
(1111,1005,ls),
(1111,1300,o),
(926,1472,o),
(633,1472,cs),
(340,1472,o),
(155,1300,o),
(155,1005,cs),
(155,448,ls),
(155,153,o),
(340,-20,o),
(633,-20,cs)
);
},
{
closed = 1;
nodes = (
(443,128,o),
(326,248,o),
(326,464,cs),
(326,990,ls),
(326,1205,o),
(443,1324,o),
(633,1324,cs),
(823,1324,o),
(940,1205,o),
(940,990,cs),
(940,464,ls),
(940,248,o),
(823,128,o),
(633,128,cs)
);
},
{
closed = 1;
nodes = (
(1070,-194,l),
(698,494,l),
(538,494,l),
(902,-194,l)
);
}
);
width = 1266;
}
);
unicode = 81;
},
{
glyphname = R;
lastChange = "2022-12-09 16:59:27 +0000";
layers = (
{
layerId = m01;
shapes = (
{
closed = 1;
nodes = (
(698,625,ls),
(966,625,o),
(1112,766,o),
(1112,1026,cs),
(1112,1286,o),
(962,1440,o),
(696,1440,cs),
(264,1440,l),
(264,1300,l),
(662,1300,ls),
(828,1300,o),
(934,1209,o),
(934,1027,cs),
(934,841,o),
(828,766,o),
(662,766,cs),
(286,766,l),
(286,625,l)
);
},
{
closed = 1;
nodes = (
(356,0,l),
(356,1440,l),
(188,1440,l),
(188,0,l)
);
},
{
closed = 1;
nodes = (
(1128,0,l),
(754,693,l),
(578,693,l),
(936,0,l)
);
}
);
width = 1266;
}
);
unicode = 82;
},
{
glyphname = S;
lastChange = "2022-12-09 15:22:26 +0000";
layers = (
{
layerId = m01;
shapes = (
{
closed = 1;
nodes = (
(933,-21,o),
(1125,142,o),
(1125,399,c),
(1125,614,o),
(1008,735,o),
(731,803,c),
(606,833,l),
(420,880,o),
(360,954,o),
(360,1078,c),
(360,1224,o),
(459,1324,o),
(641,1324,c),
(811,1324,o),
(913,1222,o),
(930,1075,c),
(1098,1075,l),
(1077,1298,o),
(937,1472,o),
(641,1472,c),
(357,1472,o),
(184,1313,o),
(184,1068,c),
(184,860,o),
(286,737,o),
(551,669,c),
(674,638,l),
(868,591,o),
(950,514,o),
(950,390,c),
(950,237,o),
(824,131,o),
(633,131,c),
(455,131,o),
(338,253,o),
(324,389,c),
(148,389,l),
(170,144,o),
(339,-21,o),
(633,-21,c)
);
}
);
width = 1266;
}
);
unicode = 83;
},
{
glyphname = T;
lastChange = "2022-12-09 13:40:31 +0000";
layers = (
{
layerId = m01;
shapes = (
{
closed = 1;
nodes = (
(718,0,l),
(718,1369,l),
(548,1369,l),
(548,0,l)
);
},
{
closed = 1;
nodes = (
(155,1290,l),
(1111,1290,l),
(1111,1438,l),
(155,1438,l)
);
}
);
width = 1266;
}
);
unicode = 84;
},
{
glyphname = U;
lastChange = "2022-12-09 16:20:58 +0000";
layers = (
{
layerId = m01;
shapes = (
{
closed = 1;
nodes = (
(940,1440,l),
(940,464,ls),
(940,248,o),
(823,128,o),
(633,128,cs),
(443,128,o),
(326,248,o),
(326,464,cs),
(326,1440,l),
(155,1440,l),
(155,448,ls),
(155,153,o),
(340,-20,o),
(633,-20,cs),
(926,-20,o),
(1111,153,o),
(1111,448,cs),
(1111,1440,l)
);
}
);
width = 1266;
}
);
unicode = 85;
},
{
glyphname = V;
lastChange = "2022-12-09 16:32:46 +0000";
layers = (
{
layerId = m01;
shapes = (
{
closed = 1;
nodes = (
(1132,1440,l),
(951,1440,l)
);
},
{
closed = 1;
nodes = (
(134,1440,l),
(548,0,l),
(654,0,l),
(654,229,l),
(627,229,l),
(315,1440,l)
);
},
{
closed = 1;
nodes = (
(951,1438,l),
(583,0,l),
(718,0,l),
(1132,1438,l)
);
}
);
width = 1266;
}
);
unicode = 86;
},
{
glyphname = W;
lastChange = "2022-12-09 17:49:09 +0000";
layers = (
{
layerId = m01;
shapes = (
{
closed = 1;
nodes = (
(447,0,l),
(624,838,l),
(642,838,l),
(819,0,l),
(995,0,l),
(1238,1440,l),
(1074,1440,l),
(906,220,l),
(890,220,l),
(717,1079,l),
(549,1079,l),
(376,220,l),
(360,220,l),
(192,1440,l),
(28,1440,l),
(271,0,l)
);
}
);
width = 1266;
}
);
unicode = 87;
},
{
glyphname = X;
lastChange = "2022-12-09 17:49:38 +0000";
layers = (
{
layerId = m01;
shapes = (
{
closed = 1;
nodes = (
(340,0,l),
(625,580,l),
(640,580,l),
(926,0,l),
(1106,0,l),
(721,718,l),
(1106,1440,l),
(926,1440,l),
(640,844,l),
(625,844,l),
(340,1440,l),
(160,1440,l),
(539,718,l),
(160,0,l)
);
}
);
width = 1266;
}
);
unicode = 88;
},
{
glyphname = Y;
lastChange = "2022-12-09 17:52:02 +0000";
layers = (
{
layerId = m01;
shapes = (
{
closed = 1;
nodes = (
(718,557,l),
(1142,1440,l),
(962,1440,l),
(641,713,l),
(625,713,l),
(304,1440,l),
(124,1440,l),
(548,557,l)
);
},
{
closed = 1;
nodes = (
(548,0,l),
(718,0,l),
(718,686,l),
(548,686,l)
);
}
);
width = 1266;
}
);
unicode = 89;
},
{
glyphname = Z;
lastChange = "2022-12-09 17:59:06 +0000";
layers = (
{
layerId = m01;
shapes = (
{
closed = 1;
nodes = (
(186,1298,l),
(1087,1298,l),
(1087,1440,l),
(186,1440,l)
);
},
{
closed = 1;
nodes = (
(169,0,l),
(1134,0,l),
(1134,142,l),
(169,142,l)
);
},
{
closed = 1;
nodes = (
(923,1281,l),
(129,108,l),
(129,0,l),
(349,0,l),
(349,166,l),
(1134,1324,l),
(1134,1440,l),
(922,1440,l)
);
}
);
width = 1266;
}
);
unicode = 90;
},
{
glyphname = a;
lastChange = "2022-12-10 06:32:58 +0000";
layers = (
{
guides = (
{
pos = (764,792);
}
);
layerId = m01;
shapes = (
{
closed = 1;
nodes = (
(742,-20,o),
(855,98,o),
(894,187,c),
(910,187,l),
(910,0,l),
(1075,0,l),
(1075,740,ls),
(1075,943,o),
(930,1100,o),
(660,1100,cs),
(373,1100,o),
(257,954,o),
(224,792,c),
(392,792,l),
(408,879,o),
(482,953,o),
(642,953,cs),
(803,953,o),
(906,887,o),
(906,724,cs),
(906,636,l),
(531,636,ls),
(324,636,o),
(174,495,o),
(174,292,cs),
(174,121,o),
(310,-20,o),
(544,-20,cs)
);
},
{
closed = 1;
nodes = (
(453,122,o),
(340,188,o),
(340,313,cs),
(340,434,o),
(431,502,o),
(552,502,cs),
(906,502,l),
(906,388,ls),
(906,239,o),
(731,122,o),
(596,122,cs)
);
}
);
width = 1266;
}
);
unicode = 97;
},
{
glyphname = b;
lastChange = "2022-02-21 12:53:05 +0000";
layers = (
{
guides = (
{
pos = (319,1472);
},
{
pos = (194,1440);
}
);
layerId = m01;
shapes = (
{
closed = 1;
nodes = (
(932,-20,o),
(1110,135,o),
(1110,390,cs),
(1110,690,ls),
(1110,945,o),
(932,1100,o),
(715,1100,cs),
(544,1100,o),
(425,1015,o),
(374,893,c),
(362,893,l),
(362,1472,l),
(192,1472,l),
(192,0,l),
(354,0,l),
(354,187,l),
(370,187,l),
(421,65,o),
(544,-20,o),
(715,-20,cs)
);
},
{
closed = 1;
nodes = (
(506,135,o),
(362,246,o),
(362,432,cs),
(362,648,ls),
(362,834,o),
(506,945,o),
(670,945,cs),
(830,945,o),
(940,833,o),
(940,655,cs),
(940,425,ls),
(940,247,o),
(830,135,o),
(670,135,cs)
);
}
);
width = 1266;
}
);
unicode = 98;
},
{
glyphname = c;
lastChange = "2022-02-22 02:49:07 +0000";
layers = (
{
guides = (
{
pos = (905,792);
},
{
pos = (923,288);
}
);
layerId = m01;
shapes = (
{
closed = 1;
nodes = (
(880,-20,o),
(1043,93,o),
(1098,288,c),
(919,288,l),
(879,183,o),
(777,128,o),
(644,128,cs),
(458,128,o),
(332,248,o),
(332,464,cs),
(332,618,ls),
(332,833,o),
(458,952,o),
(644,952,cs),
(776,952,o),
(879,897,o),
(918,792,c),
(1097,792,l),
(1041,986,o),
(879,1100,o),
(644,1100,cs),
(357,1100,o),
(164,928,o),
(164,633,cs),
(164,448,ls),
(164,153,o),
(357,-20,o),
(644,-20,cs)
);
}
);
width = 1266;
}
);
unicode = 99;
},
{
glyphname = d;
lastChange = "2022-02-21 12:53:16 +0000";
layers = (
{
guides = (
{
pos = (313,1472);
},
{
pos = (188,1440);
}
);
layerId = m01;
shapes = (
{
closed = 1;
nodes = (
(722,-20,o),
(845,65,o),
(896,187,c),
(912,187,l),
(912,0,l),
(1074,0,l),
(1074,1472,l),
(904,1472,l),
(904,893,l),
(892,893,l),
(841,1015,o),
(722,1100,o),
(551,1100,cs),
(334,1100,o),
(156,945,o),
(156,690,cs),
(156,390,ls),
(156,135,o),
(334,-20,o),
(551,-20,cs)
);
},
{
closed = 1;
nodes = (
(436,135,o),
(326,247,o),
(326,425,cs),
(326,655,ls),
(326,833,o),
(436,945,o),
(596,945,cs),
(760,945,o),
(904,834,o),
(904,648,cs),
(904,432,ls),
(904,246,o),
(760,135,o),
(596,135,cs)
);
}
);
width = 1266;
}
);
unicode = 100;
},
{
glyphname = e;
lastChange = "2022-02-22 07:14:45 +0000";
layers = (
{
guides = (
{
pos = (1104,288);
}
);
layerId = m01;
shapes = (
{
closed = 1;
nodes = (
(339,843,o),
(453,954,o),
(633,954,cs),
(813,954,o),
(927,843,o),
(934,638,c),
(332,638,l)
);
},
{
closed = 1;
nodes = (
(918,288,l),
(882,182,o),
(775,128,o),
(648,128,cs),
(462,128,o),
(332,226,o),
(332,464,cs),
(332,500,l),
(1102,500,l),
(1102,606,ls),
(1102,920,o),
(921,1100,o),
(633,1100,cs),
(346,1100,o),
(164,920,o),
(164,606,cs),
(164,477,ls),
(164,142,o),
(361,-20,o),
(648,-20,cs),
(877,-20,o),
(1040,96,o),
(1098,288,c)
);
}
);
width = 1266;
}
);
unicode = 101;
},
{
glyphname = f;
lastChange = "2022-12-10 06:09:09 +0000";
layers = (
{
guides = (
{
pos = (937,1472);
}
);
layerId = m01;
shapes = (
{
closed = 1;
nodes = (
(672,0,l),
(672,936,l),
(1096,936,l),
(1096,1080,l),
(674,1080,l),
(674,1175,ls),
(674,1289,o),
(764,1341,o),
(858,1341,cs),
(955,1341,o),
(1034,1333,o),
(1096,1317,c),
(1096,1454,l),
(1021,1479,o),
(916,1489,o),
(826,1489,cs),
(646,1489,o),
(504,1385,o),
(504,1183,cs),
(504,1080,l),
(196,1080,l),
(196,936,l),
(504,936,l),
(504,0,l)
);
}
);
width = 1266;
}
);
unicode = 102;
},
{
glyphname = g;
lastChange = "2023-11-11 21:37:33 +0000";
layers = (
{
guides = (
{
pos = (313,1472);
},
{
pos = (188,1440);
}
);
layerId = m01;
shapes = (
{
closed = 1;
nodes = (
(316,-380,o),
(427,-401,o),
(598,-401,cs),
(893,-401,o),
(1074,-221,o),
(1074,49,cs),
(1074,1080,l),
(912,1080,l),
(912,893,l),
(896,893,l),
(845,1015,o),
(722,1100,o),
(551,1100,cs),
(334,1100,o),
(156,945,o),
(156,690,cs),
(156,448,ls),
(156,193,o),
(334,38,o),
(551,38,cs),
(722,38,o),
(843,123,o),
(894,245,c),
(906,245,l),
(906,58,ls),
(906,-145,o),
(765,-251,o),
(572,-251,cs),
(428,-251,o),
(315,-237,o),
(231,-213,c),
(231,-347,l)
);
},
{
closed = 1;
nodes = (
(436,193,o),
(326,305,o),
(326,483,cs),
(326,655,ls),
(326,833,o),
(436,945,o),
(596,945,cs),
(760,945,o),
(904,834,o),
(904,648,cs),
(904,490,ls),
(904,304,o),
(760,193,o),
(596,193,cs)
);
}
);
width = 1266;
}
);
unicode = 103;
},
{
glyphname = h;
lastChange = "2022-12-09 12:57:03 +0000";
layers = (
{
layerId = m01;
shapes = (
{
closed = 1;
nodes = (
(358,0,l),
(358,648,ls),
(358,834,o),
(487,945,o),
(651,945,cs),
(811,945,o),
(908,833,o),
(908,655,cs),
(908,0,l),
(1078,0,l),
(1078,690,ls),
(1078,945,o),
(913,1100,o),
(696,1100,cs),
(525,1100,o),
(415,1015,o),
(364,893,c),
(350,893,l),
(350,1472,l),
(188,1472,l),
(188,1080,l),
(188,0,l)
);
}
);
width = 1266;
}
);
unicode = 104;
},
{
glyphname = i;
lastChange = "2022-02-21 12:46:05 +0000";
layers = (
{
layerId = m01;
shapes = (
{
closed = 1;
nodes = (
(1108,0,l),
(1108,142,l),
(756,142,l),
(756,1080,l),
(252,1080,l),
(252,938,l),
(586,938,l),
(586,142,l),
(204,142,l),
(204,0,l)
);
},
{
closed = 1;
nodes = (
(739,1324,o),
(800,1382,o),
(800,1460,cs),
(800,1538,o),
(739,1596,o),
(660,1596,cs),
(581,1596,o),
(520,1538,o),
(520,1460,cs),
(520,1382,o),
(581,1324,o),
(660,1324,cs)
);
}
);
width = 1266;
}
);
unicode = 105;
},
{
glyphname = j;
lastChange = "2023-11-11 21:37:00 +0000";
layers = (
{
layerId = m01;
shapes = (
{
closed = 1;
nodes = (
(278,-365,o),
(363,-384,o),
(454,-384,cs),
(743,-384,o),
(910,-248,o),
(910,21,cs),
(910,1080,l),
(224,1080,l),
(224,938,l),
(740,938,l),
(740,42,ls),
(740,-156,o),
(646,-236,o),
(448,-236,cs),
(364,-236,o),
(282,-227,o),
(224,-210,c),
(224,-345,l)
);
},
{
closed = 1;
nodes = (
(893,1324,o),
(954,1382,o),
(954,1460,cs),
(954,1538,o),
(893,1596,o),
(814,1596,cs),
(735,1596,o),
(674,1538,o),
(674,1460,cs),
(674,1382,o),
(735,1324,o),
(814,1324,cs)
);
}
);
width = 1266;
}
);
unicode = 106;
},
{
glyphname = k;
lastChange = "2022-02-22 07:20:16 +0000";
layers = (
{
layerId = m01;
shapes = (
{
closed = 1;
nodes = (
(597,571,l),
(611,571,l),
(1114,1080,l),
(904,1080,l),
(436,606,l),
(396,606,l),
(396,372,l)
);
},
{
closed = 1;
nodes = (
(418,0,l),
(418,1472,l),
(248,1472,l),
(248,0,l)
);
},
{
closed = 1;
nodes = (
(1145,0,l),
(631,650,l),
(512,535,l),
(934,0,l)
);
}
);
width = 1266;
}
);
unicode = 107;
},
{
glyphname = l;
lastChange = "2022-12-10 06:59:18 +0000";
layers = (
{
layerId = m01;
shapes = (
{
closed = 1;
nodes = (
(1108,0,l),
(1108,142,l),
(756,142,l),
(756,1440,l),
(204,1440,l),
(204,1298,l),
(586,1298,l),
(586,142,l),
(204,142,l),
(204,0,l)
);
}
);
width = 1266;
}
);
unicode = 108;
},
{
glyphname = m;
lastChange = "2022-02-21 13:03:43 +0000";
layers = (
{
layerId = m01;
shapes = (
{
closed = 1;
nodes = (
(272,0,l),
(272,724,ls),
(272,858,o),
(330,945,o),
(422,945,cs),
(522,945,o),
(559,872,o),
(559,742,cs),
(559,0,l),
(711,0,l),
(711,724,ls),
(711,858,o),
(768,945,o),
(860,945,cs),
(962,945,o),
(994,873,o),
(994,741,cs),
(994,0,l),
(1146,0,l),
(1146,795,ls),
(1146,992,o),
(1057,1100,o),
(915,1100,cs),
(806,1100,o),
(727,1028,o),
(700,926,c),
(684,926,l),
(661,1028,o),
(585,1100,o),
(484,1100,cs),
(382,1100,o),
(308,1026,o),
(287,923,c),
(271,923,l),
(271,1080,l),
(120,1080,l),
(120,0,l)
);
}
);
width = 1266;
}
);
unicode = 109;
},
{
glyphname = n;
lastChange = "2022-02-21 07:47:11 +0000";
layers = (
{
layerId = m01;
shapes = (
{
closed = 1;
nodes = (
(358,0,l),
(358,648,ls),
(358,834,o),
(487,945,o),
(651,945,cs),
(811,945,o),
(908,833,o),
(908,655,cs),
(908,0,l),
(1078,0,l),
(1078,690,ls),
(1078,945,o),
(913,1100,o),
(696,1100,cs),
(525,1100,o),
(417,1015,o),
(366,893,c),
(350,893,l),
(350,1080,l),
(188,1080,l),
(188,0,l)
);
}
);
width = 1266;
}
);
unicode = 110;
},
{
glyphname = o;
lastChange = "2022-02-21 07:13:06 +0000";
layers = (
{
layerId = m01;
shapes = (
{
closed = 1;
nodes = (
(920,-20,o),
(1102,153,o),
(1102,448,cs),
(1102,633,ls),
(1102,928,o),
(920,1100,o),
(633,1100,cs),
(346,1100,o),
(164,928,o),
(164,633,cs),
(164,448,ls),
(164,153,o),
(346,-20,o),
(633,-20,cs)
);
},
{
closed = 1;
nodes = (
(447,128,o),
(332,248,o),
(332,464,cs),
(332,618,ls),
(332,833,o),
(447,952,o),
(633,952,cs),
(819,952,o),
(934,833,o),
(934,618,cs),
(934,464,ls),
(934,248,o),
(819,128,o),
(633,128,cs)
);
}
);
width = 1266;
}
);
unicode = 111;
},
{
glyphname = p;
lastChange = "2022-02-21 12:52:28 +0000";
layers = (
{
guides = (
{
pos = (319,1472);
},
{
pos = (194,1440);
}
);
layerId = m01;
shapes = (
{
closed = 1;
nodes = (
(360,-384,l),
(360,187,l),
(372,187,l),
(423,65,o),
(544,-20,o),
(715,-20,cs),
(932,-20,o),
(1110,135,o),
(1110,390,cs),
(1110,690,ls),
(1110,945,o),
(932,1100,o),
(715,1100,cs),
(544,1100,o),
(421,1015,o),
(370,893,c),
(354,893,l),
(354,1080,l),
(192,1080,l),
(192,-384,l)
);
},
{
closed = 1;
nodes = (
(506,135,o),
(362,246,o),
(362,432,cs),
(362,648,ls),
(362,834,o),
(506,945,o),
(670,945,cs),
(830,945,o),
(940,833,o),
(940,655,cs),
(940,425,ls),
(940,247,o),
(830,135,o),
(670,135,cs)
);
}
);
width = 1266;
}
);
unicode = 112;
},
{
glyphname = q;
lastChange = "2022-02-22 01:58:55 +0000";
layers = (
{
guides = (
{
pos = (313,1472);
},
{
pos = (188,1440);
}
);
layerId = m01;
shapes = (
{
closed = 1;
nodes = (
(1074,-384,l),
(1074,1080,l),
(912,1080,l),
(912,893,l),
(896,893,l),
(845,1015,o),
(722,1100,o),
(551,1100,cs),
(334,1100,o),
(156,945,o),
(156,690,cs),
(156,390,ls),
(156,135,o),
(334,-20,o),
(551,-20,cs),
(722,-20,o),
(843,65,o),
(894,187,c),
(906,187,l),
(906,-384,l)
);
},
{
closed = 1;
nodes = (
(436,135,o),
(326,247,o),
(326,425,cs),
(326,655,ls),
(326,833,o),
(436,945,o),
(596,945,cs),
(760,945,o),
(904,834,o),
(904,648,cs),
(904,432,ls),
(904,246,o),
(760,135,o),
(596,135,cs)
);
}
);
width = 1266;
}
);
unicode = 113;
},
{
glyphname = r;
lastChange = "2023-11-11 21:39:43 +0000";
layers = (
{
layerId = m01;
shapes = (
{
closed = 1;
nodes = (
(906,0,l),
(906,142,l),
(554,142,l),
(554,572,ls),
(554,834,o),
(740,936,o),
(922,936,cs),
(1008,936,o),
(1086,920,o),
(1145,883,c),
(1145,1051,l),
(1089,1091,o),
(1033,1108,o),
(945,1108,cs),
(732,1108,o),
(617,1000,o),
(570,840,c),
(554,840,l),
(554,1080,l),
(163,1080,l),
(163,938,l),
(384,938,l),
(384,142,l),
(200,142,l),
(200,0,l)
);
}
);
width = 1266;
}
);
unicode = 114;
},
{
glyphname = s;
lastChange = "2022-02-22 02:52:05 +0000";
layers = (
{
guides = (
{
pos = (198,288);
},
{
pos = (979,792);
}
);
hints = (
{
horizontal = 1;
origin = (0,38);
target = (0,0);
type = Stem;
},
{
horizontal = 1;
origin = (0,39);
target = (0,37);
type = Stem;
},
{
horizontal = 1;
origin = (0,1);
target = (0,33);
type = Stem;
},
{
horizontal = 1;
origin = (0,32);
target = (0,31);
type = Stem;
},
{
horizontal = 1;
origin = (0,34);
target = (0,30);
type = Stem;
},
{
horizontal = 1;
origin = (0,36);
target = (0,35);
type = Stem;
},
{
horizontal = 1;
origin = (0,29);
target = (0,2);
type = Stem;
},
{
horizontal = 1;
origin = (0,28);
target = (0,27);
type = Stem;
},
{
horizontal = 1;
origin = (0,26);
target = (0,3);
type = Stem;
},
{
horizontal = 1;
origin = (0,25);
target = (0,24);
type = Stem;
},
{
horizontal = 1;
origin = (0,4);
target = (0,5);
type = Stem;
},
{
horizontal = 1;
origin = (0,23);
target = (0,6);
type = Stem;
},
{
horizontal = 1;
origin = (0,7);
target = (0,8);
type = Stem;
},
{
horizontal = 1;
origin = (0,22);
target = (0,9);
type = Stem;
},
{
horizontal = 1;
origin = (0,16);
target = (0,15);
type = Stem;
},
{
horizontal = 1;
origin = (0,10);
target = (0,14);
type = Stem;
},
{
horizontal = 1;
origin = (0,13);
target = (0,12);
type = Stem;
},
{
horizontal = 1;
origin = (0,11);
target = (0,21);
type = Stem;
},
{
horizontal = 1;
origin = (0,20);
target = (0,17);
type = Stem;
},
{
horizontal = 1;
origin = (0,19);
target = (0,18);
type = Stem;
}
);
layerId = m01;
shapes = (
{
closed = 1;
nodes = (
(885,-20,o),
(1057,95,o),
(1057,294,cs),
(1057,447,o),
(960,550,o),
(751,601,cs),
(608,636,ls),
(486,666,o),
(407,716,o),
(407,808,cs),
(407,906,o),
(497,959,o),
(635,959,cs),
(762,959,o),
(842,900,o),
(873,792,c),
(1039,792,l),
(1002,966,o),
(881,1100,o),
(638,1100,cs),
(400,1100,o),
(238,984,o),
(238,797,cs),
(238,643,o),
(335,534,o),
(530,491,cs),
(675,459,ls),
(795,432,o),
(881,378,o),
(881,281,cs),
(881,180,o),
(784,124,o),
(639,124,cs),
(499,124,o),
(401,190,o),
(377,288,c),
(204,288,l),
(234,102,o),
(384,-20,o),
(632,-20,cs)
);
}
);
width = 1266;
}
);
unicode = 115;
},
{
glyphname = t;
lastChange = "2022-12-10 06:06:48 +0000";
layers = (
{
layerId = m01;
shapes = (
{
closed = 1;
nodes = (
(918,-20,o),
(987,-13,o),
(1060,4,c),
(1060,143,l),
(987,134,o),
(911,130,o),
(836,130,cs),
(732,130,o),
(638,187,o),
(638,326,cs),
(638,936,l),
(1060,936,l),
(1060,1080,l),
(636,1080,l),
(636,1388,l),
(468,1388,l),
(468,1080,l),
(160,1080,l),
(160,936,l),
(468,936,l),
(468,322,ls),
(468,94,o),
(628,-20,o),
(831,-20,cs)
);
}
);
width = 1266;
}
);
unicode = 116;
},
{
glyphname = u;
lastChange = "2022-02-21 11:39:52 +0000";
layers = (
{
layerId = m01;
shapes = (
{
closed = 1;
nodes = (
(741,-20,o),
(849,65,o),
(900,187,c),
(916,187,l),
(916,0,l),
(1078,0,l),
(1078,1080,l),
(908,1080,l),
(908,432,ls),
(908,246,o),
(779,135,o),
(615,135,cs),
(455,135,o),
(358,247,o),
(358,425,cs),
(358,1080,l),
(188,1080,l),
(188,390,ls),
(188,135,o),
(353,-20,o),
(570,-20,cs)
);
}
);
width = 1266;
}
);
unicode = 117;
},
{
glyphname = v;
lastChange = "2022-02-21 11:58:03 +0000";
layers = (
{
layerId = m01;
shapes = (
{
closed = 1;
nodes = (
(718,0,l),
(1117,1080,l),
(938,1080,l),
(638,219,l),
(628,219,l),
(328,1080,l),
(149,1080,l),
(548,0,l)
);
}
);
width = 1266;
}
);
unicode = 118;
},
{
glyphname = w;
lastChange = "2022-02-21 11:39:30 +0000";
layers = (
{
layerId = m01;
shapes = (
{
closed = 1;
nodes = (
(434,0,l),
(625,838,l),
(641,838,l),
(832,0,l),
(994,0,l),
(1218,1080,l),
(1052,1080,l),
(906,220,l),
(890,220,l),
(713,1079,l),
(553,1079,l),
(376,220,l),
(360,220,l),
(214,1080,l),
(48,1080,l),
(272,0,l)
);
}
);
width = 1266;
}
);
unicode = 119;
},
{
glyphname = x;
lastChange = "2022-02-21 11:47:33 +0000";
layers = (
{
layerId = m01;
shapes = (
{
closed = 1;
nodes = (
(368,0,l),
(627,412,l),
(639,412,l),
(898,0,l),
(1093,0,l),
(736,540,l),
(1093,1080,l),
(898,1080,l),
(639,648,l),
(627,648,l),
(368,1080,l),
(173,1080,l),
(524,540,l),
(173,0,l)
);
}
);
width = 1266;
}
);
unicode = 120;
},
{
glyphname = y;
lastChange = "2022-12-09 13:17:36 +0000";
layers = (
{
layerId = m01;
shapes = (
{
closed = 1;
nodes = (
(549,0,l),
(702,0,l),
(702,225,l),
(625,225,l),
(333,1080,l),
(151,1080,l)
);
},
{
closed = 1;
nodes = (
(641,225,l),
(549,0,l),
(392,-384,l),
(574,-384,l),
(1115,1080,l),
(933,1080,l)
);
}
);
width = 1266;
}
);
unicode = 121;
},
{
glyphname = z;
lastChange = "2022-02-22 07:43:17 +0000";
layers = (
{
layerId = m01;
shapes = (
{
closed = 1;
nodes = (
(1072,-1,l),
(1072,147,l),
(424,147,l),
(424,163,l),
(1048,944,l),
(1048,1080,l),
(236,1080,l),
(236,932,l),
(848,932,l),
(848,916,l),
(212,136,l),
(212,-1,l)
);
}
);
width = 1266;
}
);
unicode = 122;
},
{
glyphname = zero;
lastChange = "2022-12-10 06:15:06 +0000";
layers = (
{
guides = (
{
},
{
angle = 36;
pos = (633,640);
},
{
angle = 36;
pos = (633,800);
}
);
layerId = m01;
shapes = (
{
closed = 1;
nodes = (
(945,-20,o),
(1122,244,o),
(1122,720,cs),
(1122,1196,o),
(942,1460,o),
(633,1460,cs),
(324,1460,o),
(144,1196,o),
(144,720,cs),
(144,244,o),
(321,-20,o),
(633,-20,cs)
);
},
{
closed = 1;
nodes = (
(423,130,o),
(301,338,o),
(301,720,cs),
(301,1102,o),
(425,1313,o),
(633,1313,cs),
(841,1313,o),
(965,1102,o),
(965,720,cs),
(965,338,o),
(842,130,o),
(633,130,cs)
);
},
{
closed = 1;
nodes = (
(287,389,l),
(1035,932,l),
(1018,1080,l),
(240,514,l)
);
}
);
width = 1266;
}
);
unicode = 48;
},
{
glyphname = one;
lastChange = "2022-12-09 16:25:52 +0000";
layers = (
{
guides = (
{
angle = 36;
pos = (656,1472);
},
{
angle = 36;
pos = (644,1278);
}
);
layerId = m01;
shapes = (
{
closed = 1;
nodes = (
(1116,0,l),
(1116,148,l),
(764,148,l),
(764,1472,l),
(656,1472,l),
(184,1129,l),
(274,1009,l),
(592,1240,l),
(594,148,l),
(212,148,l),
(212,0,l)
);
},
{
closed = 1;
nodes = (
(517,1229,l),
(656,1229,l),
(656,1262,l),
(517,1262,l)
);
}
);
width = 1266;
}
);
unicode = 49;
},
{
glyphname = two;
lastChange = "2022-02-22 07:35:10 +0000";
layers = (
{
layerId = m01;
shapes = (
{
closed = 1;
nodes = (
(1108,0,l),
(1108,148,l),
(433,148,l),
(433,164,l),
(759,516,ls),
(998,774,o),
(1084,912,o),
(1084,1069,cs),
(1084,1293,o),
(901,1472,o),
(646,1472,cs),
(391,1472,o),
(198,1299,o),
(198,1044,c),
(366,1044,l),
(366,1209,o),
(472,1318,o),
(640,1318,cs),
(798,1318,o),
(917,1222,o),
(917,1069,cs),
(917,935,o),
(839,835,o),
(670,652,cs),
(188,128,l),
(188,0,l)
);
}
);
width = 1266;
}
);
unicode = 50;
},
{
glyphname = three;
lastChange = "2022-02-22 07:50:45 +0000";
layers = (
{
layerId = m01;
shapes = (
{
closed = 1;
nodes = (
(923,-20,o),
(1132,157,o),
(1132,394,cs),
(1132,579,o),
(1023,713,o),
(840,743,c),
(840,754,l),
(987,799,o),
(1078,920,o),
(1078,1083,cs),
(1078,1289,o),
(916,1472,o),
(647,1472,cs),
(392,1472,o),
(184,1312,o),
(178,1080,c),
(348,1080,l),
(352,1230,o),
(490,1319,o),
(644,1319,cs),
(805,1319,o),
(908,1222,o),
(908,1075,cs),
(908,922,o),
(788,824,o),
(616,824,cs),
(500,824,l),
(500,664,l),
(616,664,ls),
(837,664,o),
(959,554,o),
(959,394,cs),
(959,240,o),
(825,136,o),
(639,136,cs),
(471,136,o),
(337,224,o),
(327,364,c),
(148,364,l),
(159,136,o),
(360,-20,o),
(642,-20,cs)
);
},
{
closed = 1;
nodes = (
(759,714,l),
(846,714,l),
(846,781,l),
(759,781,l)
);
}
);
width = 1266;
}
);
unicode = 51;
},
{
glyphname = four;
lastChange = "2022-12-10 03:04:12 +0000";
layers = (
{
guides = (
{
angle = 54;
pos = (730,1440);
}
);
layerId = m01;
shapes = (
{
closed = 1;
nodes = (
(960,0,l),
(960,884,l),
(794,884,l),
(794,0,l)
);
},
{
closed = 1;
nodes = (
(743,1440,l),
(110,468,l),
(110,288,l),
(1152,288,l),
(1152,436,l),
(298,436,l),
(298,461,l),
(926,1440,l)
);
}
);
width = 1266;
}
);
unicode = 52;
},
{
glyphname = five;
lastChange = "2022-12-09 18:01:15 +0000";
layers = (
{
guides = (
{
pos = (1215,364);
},
{
pos = (1776,664);
}
);
layerId = m01;
shapes = (
{
closed = 1;
nodes = (
(339,664,l),
(399,745,o),
(513,790,o),
(627,790,cs),
(811,790,o),
(934,659,o),
(934,463,cs),
(934,269,o),
(830,140,o),
(627,140,cs),
(457,140,o),
(368,229,o),
(342,364,c),
(163,364,l),
(189,133,o),
(369,-20,o),
(626,-20,cs),
(917,-20,o),
(1105,151,o),
(1105,466,cs),
(1105,748,o),
(921,946,o),
(656,946,cs),
(535,946,o),
(436,903,o),
(366,825,c),
(350,825,l),
(405,1285,l),
(1026,1285,l),
(1026,1440,l),
(264,1440,l),
(174,664,l)
);
}
);
width = 1266;
}
);
unicode = 53;
},
{
glyphname = six;
lastChange = "2022-12-10 03:14:15 +0000";
layers = (
{
layerId = m01;
shapes = (
{
closed = 1;
nodes = (
(941,633,o),
(809,766,o),
(633,766,cs),
(457,766,o),
(326,633,o),
(326,448,cs),
(326,265,o),
(452,131,o),
(633,131,cs),
(815,131,o),
(941,265,o),
(941,448,cs)
);
},
{
closed = 1;
nodes = (
(348,-21,o),
(160,174,o),
(160,457,cs),
(160,625,o),
(213,769,o),
(347,965,c),
(359,987,o),
(666,1426,o),
(675,1440,c),
(872,1440,l),
(475,883,ls),
(433,824,o),
(437,827,o),
(430,811,c),
(443,804,l),
(484,859,o),
(587,901,o),
(676,901,cs),
(926,901,o),
(1108,717,o),
(1108,457,cs),
(1108,175,o),
(918,-21,o),
(632,-21,cs)
);
}
);
width = 1266;
}
);
unicode = 54;
},
{
glyphname = seven;
lastChange = "2022-12-10 03:16:45 +0000";
layers = (
{
layerId = m01;
shapes = (
{
closed = 1;
nodes = (
(206,1440,l),
(206,1292,l),
(889,1292,l),
(386,0,l),
(568,0,l),
(1110,1440,l)
);
}
);
width = 1266;
}
);
unicode = 55;
},
{
glyphname = eight;
lastChange = "2022-12-10 06:11:26 +0000";
layers = (
{
layerId = m01;
shapes = (
{
closed = 1;
nodes = (
(926,-20,o),
(1112,149,o),
(1112,405,cs),
(1112,587,o),
(996,732,o),
(815,762,c),
(815,768,l),
(971,801,o),
(1071,930,o),
(1071,1085,cs),
(1071,1311,o),
(903,1468,o),
(633,1468,cs),
(363,1468,o),
(196,1311,o),
(196,1085,cs),
(196,930,o),
(296,801,o),
(452,768,c),
(452,762,l),
(271,732,o),
(154,587,o),
(154,405,cs),
(154,149,o),
(341,-20,o),
(633,-20,cs)
);
},
{
closed = 1;
nodes = (
(445,132,o),
(323,239,o),
(323,406,cs),
(323,569,o),
(451,680,o),
(633,680,cs),
(815,680,o),
(943,569,o),
(943,406,cs),
(943,239,o),
(821,132,o),
(633,132,cs)
);
},
{
closed = 1;
nodes = (
(475,837,o),
(366,934,o),
(366,1078,cs),
(366,1222,o),
(469,1322,o),
(633,1322,cs),
(797,1322,o),
(900,1222,o),
(900,1078,cs),
(900,934,o),
(791,837,o),
(633,837,cs)
);
}
);
width = 1266;
}
);
unicode = 56;
},
{
glyphname = hyphen_greater.liga;
lastChange = "2022-12-09 16:09:19 +0000";
layers = (
{
layerId = m01;
shapes = (
{
pos = (-21,0);
ref = hyphen;
scale = (1.8662,1);
},
{
closed = 1;
nodes = (
(1427,1215,l),
(2017,624,l),
(1427,33,l),
(1531,-72,l),
(2227,624,l),
(1531,1320,l)
);
}
);
width = 2532;
}
);
},
{
glyphname = bracketright_hyphen_greater.liga;
lastChange = "2022-12-09 17:26:44 +0000";
layers = (
{
layerId = m01;
shapes = (
{
ref = bracketright;
},
{
pos = (530,96);
ref = hyphen;
scale = (2.3966,1);
},
{
closed = 1;
nodes = (
(2550,1311,l),
(3140,720,l),
(2550,129,l),
(2654,24,l),
(3350,720,l),
(2654,1416,l)
);
}
);
width = 3798;
}
);
},
{
glyphname = period;
lastChange = "2022-02-22 01:42:57 +0000";
layers = (
{
layerId = m01;
shapes = (
{
closed = 1;
nodes = (
(728,-19,o),
(800,54,o),
(800,147,cs),
(800,240,o),
(728,313,o),
(633,313,cs),
(539,313,o),
(466,240,o),
(466,147,cs),
(466,54,o),
(539,-19,o),
(633,-19,cs)
);
}
);
width = 1266;
}
);
unicode = 46;
},
{
glyphname = comma;
lastChange = "2022-02-22 01:42:47 +0000";
layers = (
{
layerId = m01;
shapes = (
{
closed = 1;
nodes = (
(790,323,l),
(567,323,l),
(430,-279,l),
(581,-279,l)
);
}
);
width = 1266;
}
);
unicode = 44;
},
{
glyphname = exclam;
lastChange = "2022-12-10 03:38:09 +0000";
layers = (
{
layerId = m01;
shapes = (
{
closed = 1;
nodes = (
(713,461,l),
(722,1440,l),
(544,1440,l),
(553,461,l)
);
},
{
closed = 1;
nodes = (
(704,-20,o),
(761,37,o),
(761,108,cs),
(761,179,o),
(704,236,o),
(633,236,cs),
(562,236,o),
(505,179,o),
(505,108,cs),
(505,37,o),
(562,-20,o),
(633,-20,cs)
);
}
);
width = 1266;
}
);
unicode = 33;
},
{
glyphname = question;
lastChange = "2022-12-12 07:33:01 +0000";
layers = (
{
layerId = m01;
shapes = (
{
closed = 1;
nodes = (
(706,428,l),
(706,601,o),
(751,669,o),
(880,743,cs),
(976,798,o),
(1080,933,o),
(1080,1090,cs),
(1080,1330,o),
(900,1474,o),
(665,1474,cs),
(424,1474,o),
(248,1322,o),
(239,1088,c),
(416,1095,l),
(430,1267,o),
(549,1334,o),
(665,1334,cs),
(807,1334,o),
(912,1239,o),
(912,1103,cs),
(912,987,o),
(846,904,o),
(760,854,cs),
(569,739,o),
(538,626,o),
(538,428,c)
);
},
{
closed = 1;
nodes = (
(704,-20,o),
(761,37,o),
(761,108,cs),
(761,179,o),
(704,236,o),
(633,236,cs),
(562,236,o),
(505,179,o),
(505,108,cs),
(505,37,o),
(562,-20,o),
(633,-20,cs)
);
}
);
width = 1266;
}
);
unicode = 63;
},
{
glyphname = asterisk;
lastChange = "2022-02-22 01:39:25 +0000";
layers = (
{
guides = (
{
angle = 90;
pos = (633,624);
},
{
angle = 30;
pos = (633,624);
},
{
angle = 150;
pos = (633,624);
}
);
layerId = m01;
shapes = (
{
closed = 1;
nodes = (
(708,96,l),
(692,624,l),
(708,1152,l),
(558,1152,l),
(574,624,l),
(558,96,l)
);
},
{
closed = 1;
nodes = (
(213,295,l),
(663,573,l),
(1128,823,l),
(1053,953,l),
(604,675,l),
(138,425,l)
);
},
{
closed = 1;
nodes = (
(1128,425,l),
(663,675,l),
(213,953,l),
(138,823,l),
(604,573,l),
(1053,295,l)
);
}
);
width = 1266;
}
);
unicode = 42;
},
{
glyphname = numbersign;
lastChange = "2022-12-10 07:25:08 +0000";
layers = (
{
layerId = m01;
shapes = (
{
closed = 1;
nodes = (
(62,377,l),
(1058,377,l),
(1089,521,l),
(93,521,l)
);
},
{
closed = 1;
nodes = (
(181,936,l),
(1177,936,l),
(1208,1080,l),
(212,1080,l)
);
},
{
closed = 1;
nodes = (
(183,53,l),
(335,53,l),
(618,1388,l),
(466,1388,l)
);
},
{
closed = 1;
nodes = (
(644,52,l),
(796,52,l),
(1079,1387,l),
(927,1387,l)
);
}
);
width = 1266;
}
);
unicode = 35;
},
{
glyphname = backslash;
lastChange = "2022-12-10 03:38:58 +0000";
layers = (
{
layerId = m01;
shapes = (
{
closed = 1;
nodes = (
(1070,-120,l),
(370,1560,l),
(196,1560,l),
(896,-120,l)
);
}
);
width = 1266;
}
);
unicode = 92;
},
{
glyphname = hyphen;
lastChange = "2022-02-22 04:38:05 +0000";
layers = (
{
layerId = m01;
shapes = (
{
closed = 1;
nodes = (
(141,550,l),
(1125,550,l),
(1125,698,l),
(141,698,l)
);
}
);
width = 1266;
}
);
unicode = 45;
},
{
glyphname = underscore;
lastChange = "2022-02-22 04:19:42 +0000";
layers = (
{
layerId = m01;
shapes = (
{
closed = 1;
nodes = (
(108,-168,l),
(1158,-168,l),
(1158,-20,l),
(108,-20,l)
);
}
);
width = 1266;
}
);
unicode = 95;
},
{
glyphname = parenleft;
lastChange = "2022-02-22 04:25:32 +0000";
layers = (
{
layerId = m01;
shapes = (
{
closed = 1;
nodes = (
(404,373,o),
(514,85,o),
(704,-160,c),
(864,-160,l),
(715,21,o),
(592,393,o),
(592,720,c),
(592,1047,o),
(715,1419,o),
(864,1600,c),
(704,1600,l),
(514,1355,o),
(404,1067,o),
(404,720,c)
);
}
);
width = 1266;
}
);
unicode = 40;
},
{
glyphname = braceleft;
lastChange = "2022-12-10 03:55:47 +0000";
layers = (
{
layerId = m01;
shapes = (
{
closed = 1;
nodes = (
(596,715,o),
(744,814,o),
(734,957,cs),
(715,1232,ls),
(704,1392,o),
(766,1472,o),
(926,1472,c),
(926,1592,l),
(656,1592,o),
(534,1485,o),
(551,1232,cs),
(566,1012,ls),
(576,861,o),
(452,805,o),
(299,805,c),
(299,715,l)
);
},
{
closed = 1;
nodes = (
(299,635,l),
(452,635,o),
(576,579,o),
(566,428,cs),
(551,208,ls),
(534,-45,o),
(656,-152,o),
(926,-152,c),
(926,-32,l),
(766,-32,o),
(704,48,o),
(715,208,cs),
(734,483,ls),
(744,626,o),
(596,725,o),
(299,725,c)
);
},
{
closed = 1;
nodes = (
(299,644,l),
(452,644,l),
(452,796,l),
(299,796,l)
);
}
);
width = 1266;
}
);
unicode = 123;
},
{
glyphname = bracketleft;
lastChange = "2022-02-22 04:16:39 +0000";
layers = (
{
layerId = m01;
shapes = (
{
closed = 1;
nodes = (
(384,1588,l),
(384,-148,l),
(926,-148,l),
(926,-12,l),
(550,-12,l),
(550,1452,l),
(924,1452,l),
(924,1588,l)
);
}
);
width = 1266;
}
);
unicode = 91;
},
{
glyphname = quotesingle;
lastChange = "2022-02-22 01:57:15 +0000";
layers = (
{
layerId = m01;
shapes = (
{
closed = 1;
nodes = (
(548,828,l),
(718,828,l),
(718,1440,l),
(548,1440,l)
);
}
);
width = 1266;
}
);
unicode = 39;
},
{
glyphname = at;
lastChange = "2022-12-10 06:17:22 +0000";
layers = (
{
layerId = m01;
shapes = (
{
closed = 1;
nodes = (
(770,-175,o),
(873,-157,o),
(966,-125,c),
(966,0,l),
(868,-22,o),
(780,-32,o),
(634,-32,cs),
(444,-32,o),
(324,93,o),
(324,309,cs),
(324,990,ls),
(324,1205,o),
(442,1325,o),
(634,1325,cs),
(826,1325,o),
(944,1206,o),
(944,991,cs),
(944,672,ls),
(944,563,o),
(911,486,o),
(856,437,cs),
(810,395,o),
(739,405,o),
(740,455,c),
(665,242,l),
(876,242,o),
(1112,372,o),
(1112,655,cs),
(1112,1005,ls),
(1112,1300,o),
(927,1472,o),
(634,1472,cs),
(341,1472,o),
(156,1300,o),
(156,1005,cs),
(156,293,ls),
(156,-2,o),
(331,-175,o),
(624,-175,cs)
);
},
{
closed = 1;
nodes = (
(723,242,o),
(740,294,o),
(740,358,cs),
(740,421,o),
(693,472,o),
(635,472,cs),
(576,472,o),
(528,421,o),
(528,358,cs),
(528,294,o),
(576,242,o),
(665,242,cs)
);
},
{
closed = 1;
nodes = (
(693,768,o),
(741,820,o),
(741,884,cs),
(741,947,o),
(693,998,o),
(635,998,cs),
(576,998,o),
(528,947,o),
(528,884,cs),
(528,820,o),
(576,768,o),
(635,768,cs)
);
},
{
closed = 1;
nodes = (
(529,358,l),
(740,358,l),
(741,884,l),
(529,884,l)
);
}
);
width = 1266;
}
);
unicode = 64;
},
{
glyphname = ampersand;
lastChange = "2022-12-10 06:55:59 +0000";
layers = (
{
layerId = m01;
shapes = (
{
closed = 1;
nodes = (
(653,-20,o),
(775,58,o),
(876,200,c),
(1180,607,l),
(988,607,l),
(782,315,l),
(694,199,o),
(600,137,o),
(458,137,cs),
(324,137,o),
(244,217,o),
(244,362,cs),
(244,465,o),
(333,564,o),
(417,627,cs),
(702,843,ls),
(817,930,o),
(892,1028,o),
(892,1167,cs),
(892,1356,o),
(733,1472,o),
(544,1472,cs),
(337,1472,o),
(199,1341,o),
(199,1142,cs),
(199,1027,o),
(248,930,o),
(333,834,cs),
(474,676,l),
(1003,0,l),
(1210,0,l),
(554,816,ls),
(492,893,o),
(432,965,o),
(395,1036,cs),
(376,1071,o),
(367,1106,o),
(367,1140,cs),
(367,1239,o),
(447,1327,o),
(550,1327,cs),
(653,1327,o),
(723,1242,o),
(723,1167,cs),
(723,1068,o),
(668,1018,o),
(590,959,cs),
(383,802,ls),
(235,690,o),
(83,544,o),
(83,362,cs),
(83,117,o),
(226,-20,o),
(478,-20,cs)
);
}
);
width = 1266;
}
);
unicode = 38;
},
{
glyphname = bar;
lastChange = "2022-12-10 06:46:55 +0000";
layers = (
{
layerId = m01;
shapes = (
{
closed = 1;
nodes = (
(550,1588,l),
(550,-148,l),
(716,-148,l),
(716,1588,l)
);
}
);
width = 1266;
}
);
unicode = 124;
},
{
glyphname = dollar;
lastChange = "2022-12-10 06:43:31 +0000";
layers = (
{
layerId = m01;
shapes = (
{
pos = (-4,0);
ref = S;
scale = (1,0.9703);
},
{
closed = 1;
nodes = (
(565,-181,l),
(701,-181,l),
(701,1621,l),
(565,1621,l)
);
}
);
width = 1266;
}
);
unicode = 36;
},
{
glyphname = greater;
lastChange = "2022-12-09 16:02:27 +0000";
layers = (
{
layerId = m01;
shapes = (
{
closed = 1;
nodes = (
(262,922,l),
(1072,538,l),
(1072,710,l),
(262,1098,l)
);
},
{
closed = 1;
nodes = (
(1072,539,l),
(1072,703,l),
(262,310,l),
(262,142,l)
);
},
{
closed = 1;
nodes = (
(879,569,l),
(977,569,l),
(977,670,l),
(879,670,l)
);
}
);
width = 1266;
}
);
unicode = 62;
},
{
glyphname = asciitilde;
lastChange = "2022-12-09 16:07:22 +0000";
layers = (
{
layerId = m01;
shapes = (
{
closed = 1;
nodes = (
(752,599,o),
(797,570,o),
(852,570,cs),
(933,570,o),
(994,624,o),
(990,787,c),
(1123,787,l),
(1123,742,ls),
(1123,559,o),
(1014,440,o),
(850,440,cs),
(750,440,o),
(676,476,o),
(591,565,cs),
(516,648,o),
(472,676,o),
(425,676,cs),
(337,676,o),
(275,621,o),
(279,458,c),
(143,458,l),
(143,503,ls),
(143,684,o),
(254,808,o),
(418,808,cs),
(517,808,o),
(591,772,o),
(677,682,cs)
);
}
);
width = 1266;
}
);
unicode = 126;
},
{
glyphname = asciicircum;
lastChange = "2022-12-10 06:45:42 +0000";
layers = (
{
layerId = m01;
shapes = (
{
closed = 1;
nodes = (
(245,835,l),
(433,835,l),
(623,1237,l),
(643,1237,l),
(833,835,l),
(1021,835,l),
(715,1440,l),
(551,1440,l)
);
}
);
width = 1266;
}
);
unicode = 94;
},
{
glyphname = percent;
lastChange = "2022-12-10 07:19:09 +0000";
layers = (
{
layerId = m01;
shapes = (
{
closed = 1;
nodes = (
(1203,1440,l),
(1049,1440,l),
(63,0,l),
(217,0,l)
);
},
{
ref = little_o;
},
{
angle = 180;
pos = (1266,1440);
ref = little_o;
}
);
width = 1266;
}
);
unicode = 37;
},
{
glyphname = greater.alt1;
lastChange = "2022-12-10 03:52:12 +0000";
layers = (
{
layerId = m01;
shapes = (
{
closed = 1;
nodes = (
(219,1215,l),
(809,624,l),
(219,33,l),
(323,-72,l),
(1019,624,l),
(323,1320,l)
);
},
{
pos = (-105,0);
ref = equal;
scale = (0.7426,1);
}
);
width = 1266;
}
);
},
{
glyphname = greater.alt2;
lastChange = "2022-12-10 03:53:57 +0000";
layers = (
{
layerId = m01;
shapes = (
{
closed = 1;
nodes = (
(219,1215,l),
(809,624,l),
(219,33,l),
(323,-72,l),
(1019,624,l),
(323,1320,l)
);
},
{
pos = (-126,0);
ref = hyphen;
scale = (0.8937,1);
}
);
width = 1266;
}
);
},
{
glyphname = little_o;
lastChange = "2022-12-10 07:18:15 +0000";
layers = (
{
layerId = m01;
shapes = (
{
closed = 1;
nodes = (
(1122,-18,o),
(1235,90,o),
(1235,273,cs),
(1235,363,ls),
(1235,546,o),
(1122,653,o),
(945,654,cs),
(768,654,o),
(655,546,o),
(655,363,cs),
(655,273,ls),
(655,90,o),
(768,-18,o),
(945,-18,cs)
);
},
{
closed = 1;
nodes = (
(845,102,o),
(783,166,o),
(783,285,cs),
(783,352,ls),
(783,469,o),
(845,534,o),
(945,534,cs),
(1045,534,o),
(1106,469,o),
(1106,352,cs),
(1106,285,ls),
(1106,166,o),
(1045,102,o),
(945,102,cs)
);
}
